Coordinates
version=1
nRows=14
nColumns=40
inDegrees=yes

Units are S.I. units (second, meters, Newtons, ...)
Angles are in degrees.

endheader
time	pelvis_tilt	pelvis_list	pelvis_rotation	pelvis_tx	pelvis_ty	pelvis_tz	hip_flexion_r	hip_adduction_r	hip_rotation_r	knee_angle_r	knee_angle_r_beta	ankle_angle_r	subtalar_angle_r	mtp_angle_r	hip_flexion_l	hip_adduction_l	hip_rotation_l	knee_angle_l	knee_angle_l_beta	ankle_angle_l	subtalar_angle_l	mtp_angle_l	lumbar_extension	lumbar_bending	lumbar_rotation	arm_flex_r	arm_add_r	arm_rot_r	elbow_flex_r	pro_sup_r	wrist_flex_r	wrist_dev_r	arm_flex_l	arm_add_l	arm_rot_l	elbow_flex_l	pro_sup_l	wrist_flex_l	wrist_dev_l
     26.79414286	     -5.26779915	     -4.95204652	     -4.70815755	      1.05394503	      0.93515307	      0.42844237	     37.26156726	     -3.40254973	     -4.03121883	     61.42076240	     61.42076240	     -0.75930424	    -12.62840056	      0.04468613	     11.78862867	     -5.25215025	     -8.30546185	     19.69843099	     19.69843099	     14.84749943	    -12.58008235	      3.98243946	    -11.86455355	      6.85168390	      4.82366397	      7.86429991	    -14.22900429	     -3.03151205	     49.25481761	     46.33595523	      0.00000000	      0.00000000	     17.76875873	    -18.75597929	      3.12556678	     66.65314788	     46.44209458	      0.00000000	      0.00000000
     26.80578571	     -5.30311937	     -5.04164132	     -4.83845053	      1.05265268	      0.93505954	      0.42870956	     37.79179396	     -3.16572629	     -4.24576468	     58.62173561	     58.62173561	     -0.74134964	    -12.18012929	     -0.18722905	     11.10132040	     -5.35580492	     -8.62124857	     19.31871543	     19.31871543	     15.00845457	    -12.17936213	      3.26255002	    -11.82785779	      6.93768345	      4.18523119	      8.83475662	    -13.75141946	     -2.70414103	     40.94955359	     46.58133031	      0.00000000	      0.00000000	     18.86921760	    -20.04509096	      3.55662073	     69.11429646	     46.51738953	      0.00000000	      0.00000000
     26.81742857	     -5.28703923	     -5.17833779	     -4.90678649	      1.05155006	      0.93501785	      0.42888779	     38.01404277	     -2.95360752	     -4.58735686	     55.43323071	     55.43323071	     -0.56315152	    -11.39537475	     -0.06515188	     10.30736325	     -5.44901140	     -8.73843771	     18.85633087	     18.85633087	     15.30112873	    -11.93970701	      3.10121726	    -11.98221508	      7.14276147	      4.50771902	      7.15797482	    -14.21438982	     -2.55795566	     38.72232917	     46.63646668	      0.00000000	      0.00000000	     20.68792372	    -20.02684530	      3.15653824	     70.94809573	     46.59848784	      0.00000000	      0.00000000
     26.82907143	     -5.33125669	     -5.22210687	     -4.94093763	      1.05050013	      0.93470335	      0.42922768	     38.10253814	     -2.79617369	     -4.88570393	     51.90850828	     51.90850828	     -0.70052905	    -10.71523692	     -0.98976601	      9.59567838	     -5.49009492	     -9.00986946	     18.40539595	     18.40539595	     15.45188149	    -11.50792827	      2.31422255	    -11.94825241	      7.15786674	      4.05104963	      7.46883249	    -13.94032220	     -2.35813382	     32.08823379	     46.83629622	      0.00000000	      0.00000000	     22.02107066	    -21.08434142	      3.63135699	     73.30729606	     46.68154173	      0.00000000	      0.00000000
     26.84071429	     -5.37364557	     -5.26518341	     -4.98082259	      1.04967830	      0.93441797	      0.42952191	     37.93821645	     -2.67722567	     -5.28670575	     48.06288847	     48.06288847	     -0.44289961	     -9.49343770	     -0.97348664	      8.82062950	     -5.48915760	     -9.17046891	     17.86912996	     17.86912996	     15.68613656	    -11.19029407	      2.11293751	    -12.01835281	      7.25635621	      4.30868632	      5.82003721	    -14.29662928	     -2.32461641	     30.15581371	     46.88708963	      0.00000000	      0.00000000	     23.62574081	    -21.14085323	      3.36387933	     75.07362623	     46.75633898	      0.00000000	      0.00000000
     26.85235714	     -5.47564953	     -5.32386969	     -4.92304584	      1.04896736	      0.93397500	      0.42989316	     37.57914328	     -2.53135778	     -5.79443425	     43.91290554	     43.91290554	     -0.19452877	     -8.19711017	     -0.75253948	      8.14339994	     -5.51682969	     -9.25570245	     17.37948081	     17.37948081	     15.92103432	    -10.83249286	      1.88451966	    -11.96277486	      7.34050756	      4.20045051	      4.22965784	    -14.53920009	     -2.28138632	     28.60502883	     46.92913209	      0.00000000	      0.00000000	     25.09815391	    -21.45413024	      3.30440865	     76.46827049	     46.80147566	      0.00000000	      0.00000000
     26.86400000	     -5.41939746	     -5.21694386	     -4.88883135	      1.04871889	      0.93346664	      0.43021632	     36.89621789	     -2.55974773	     -6.27037873	     39.70126199	     39.70126199	      0.09127710	     -6.44432977	     -0.85169221	      7.14530804	     -5.33895329	     -9.53307504	     16.66645756	     16.66645756	     16.17273944	    -10.23068085	      1.35272502	    -12.00052244	      7.27785130	      4.45661202	      2.79117639	    -14.66480828	     -2.20451432	     26.09819154	     47.00767944	      0.00000000	      0.00000000	     26.71131263	    -21.76631646	      3.90571758	     78.62019450	     46.83086082	      0.00000000	      0.00000000
     26.87564286	     -5.55363379	     -5.22923514	     -4.76003190	      1.04860883	      0.93261245	      0.43076929	     36.14407724	     -2.39212077	     -6.88717704	     35.28056122	     35.28056122	      0.30294343	     -4.98856216	     -0.33941013	      6.43198099	     -5.31550396	     -9.56781811	     16.10117091	     16.10117091	     16.45690056	     -9.85434753	      1.04044537	    -11.73429676	      7.32134839	      4.15024841	      1.25459227	    -14.72934408	     -2.20106638	     24.92904409	     47.03994962	      0.00000000	      0.00000000	     27.97695660	    -22.21429733	      3.99279980	     79.83618863	     46.86273401	      0.00000000	      0.00000000
     26.88728571	     -5.43530548	     -5.04138228	     -4.60469133	      1.04895992	      0.93185339	      0.43125782	     35.03728344	     -2.48317398	     -7.62572718	     31.07519405	     31.07519405	      0.65699991	     -2.97428102	      0.25702005	      5.32005362	     -5.05481511	     -9.80733519	     15.32633043	     15.32633043	     16.64553021	     -9.16797370	      0.50536797	    -11.80902563	      7.14869147	      4.20904791	     -0.42523602	    -14.78319530	     -2.21534615	     23.51620304	     47.08219130	      0.00000000	      0.00000000	     29.31007072	    -22.60263915	      4.57493031	     81.71954556	     46.88401435	      0.00000000	      0.00000000
     26.89892857	     -5.40724646	     -4.86613056	     -4.42282438	      1.04954361	      0.93067870	      0.43198608	     34.00954075	     -2.51933152	     -8.47621792	     27.26107954	     27.26107954	      1.19833056	     -0.97929525	      2.06501433	      4.28367610	     -4.83367753	    -10.03013389	     14.51440268	     14.51440268	     16.56808353	     -8.55250705	     -0.88779106	    -11.66754548	      6.91815463	      4.06544312	     -2.09929649	    -14.65580225	     -2.62237920	     22.39478504	     47.13309525	      0.00000000	      0.00000000	     30.54921693	    -23.55282638	      6.10830376	     83.68542947	     46.90792315	      0.00000000	      0.00000000
     26.91057143	     -5.37670364	     -4.70047261	     -4.19173686	      1.05038543	      0.92935858	      0.43281121	     32.85981726	     -2.47433347	     -9.33906046	     23.65536925	     23.65536925	      1.30099804	      0.51650997	      3.13510724	      3.27206200	     -4.61505256	    -10.04949547	     13.80515245	     13.80515245	     16.90336426	     -7.98726626	     -1.18538274	    -11.47608481	      6.74853775	      3.89530595	     -3.87297761	    -14.62817525	     -2.69437612	     21.91307871	     47.13776294	      0.00000000	      0.00000000	     31.60050050	    -23.69352924	      6.13808916	     84.86989145	     46.94638225	      0.00000000	      0.00000000
     26.92221429	     -5.29478861	     -4.46487997	     -3.95652531	      1.05150685	      0.92786857	      0.43383338	     31.76107070	     -2.51276681	    -10.32397426	     20.74973833	     20.74973833	      1.47915989	      2.01774578	      4.31317398	      2.16772978	     -4.34394135	    -10.17679193	     13.06095426	     13.06095426	     17.24027770	     -7.27571757	     -1.56565752	    -11.32535556	      6.45296224	      3.79548401	     -5.76973079	    -14.50113901	     -2.78734039	     21.68792123	     47.12982878	      0.00000000	      0.00000000	     32.63773889	    -23.93833709	      6.45417089	     86.26687511	     46.97146528	      0.00000000	      0.00000000
     26.93385714	     -5.13379573	     -4.23381269	     -3.69441661	      1.05287536	      0.92627984	      0.43499643	     30.73240822	     -2.59349873	    -11.47670142	     18.67798003	     18.67798003	      1.83197744	      3.41720552	      5.67635192	      0.96605507	     -4.10216020	    -10.36669522	     12.33105570	     12.33105570	     17.57916172	     -6.41550502	     -2.05831234	    -11.24676250	      6.17053216	      3.81599111	     -7.88975229	    -14.37843168	     -2.96722881	     21.93867121	     47.10171427	      0.00000000	      0.00000000	     33.60030264	    -24.30494843	      7.19701289	     87.84149108	     46.98158966	      0.00000000	      0.00000000
     26.94550000	     -5.14538260	     -4.00593624	     -3.44477434	      1.05412411	      0.92430264	      0.43644137	     30.14347697	     -2.66278736	    -12.45935660	     17.54943310	     17.54943310	      2.65214588	      4.31659531	      8.47800174	      0.10101787	     -3.94272964	    -10.60517363	     11.87118449	     11.87118449	     17.92535916	     -5.54589734	     -2.82977044	    -10.97696547	      5.84780325	      4.26937273	    -11.09526023	    -14.27874885	     -3.59732041	     24.79952697	     46.93788931	      0.00000000	      0.00000000	     35.07322624	    -24.56540768	      9.09727946	     88.76097248	     47.02079812	      0.00000000	      0.00000000
